<?xml version="1.0" encoding="UTF-8"?><svg xmlns="http://www.w3.org/2000/svg" xmlns:xlink="http://www.w3.org/1999/xlink" contentScriptType="text/ecmascript" width="375" zoomAndPan="magnify" contentStyleType="text/css" viewBox="0 0 375 374.999991" height="374.999991" preserveAspectRatio="xMidYMid meet" version="1.0"><defs><clipPath id="clip-0"><path d="M 86 116 L 344 116 L 344 344.226562 L 86 344.226562 Z M 86 116 " clip-rule="nonzero"/></clipPath><clipPath id="clip-1"><path d="M 30.726562 30.726562 L 344.226562 30.726562 L 344.226562 313 L 30.726562 313 Z M 30.726562 30.726562 " clip-rule="nonzero"/></clipPath></defs><g clip-path="url(#clip-0)"><path fill="rgb(77.648926%, 57.249451%, 21.569824%)" d="M 234.984375 286.410156 L 199.097656 261.941406 L 199.097656 254.304688 L 240.472656 286.90625 C 238.652344 286.730469 236.828125 286.566406 234.984375 286.410156 Z M 343.613281 312.507812 C 324.445312 302.15625 294.90625 293.902344 259.414062 289.089844 L 259.414062 283.445312 L 199.097656 242.320312 L 199.097656 234.683594 L 259.414062 282.214844 L 259.414062 263.824219 L 199.097656 222.703125 L 199.097656 215.066406 L 259.414062 262.589844 L 259.414062 244.207031 L 199.097656 203.082031 L 199.097656 195.445312 L 259.414062 242.972656 L 259.414062 224.585938 L 199.097656 183.460938 L 199.097656 175.824219 L 259.414062 223.351562 L 259.414062 204.96875 L 199.097656 163.84375 L 199.097656 156.207031 L 259.414062 203.734375 L 259.414062 185.347656 L 199.097656 144.222656 L 199.097656 136.585938 L 259.414062 184.113281 L 259.414062 165.890625 L 187.476562 116.839844 L 187.476562 293.984375 C 214.164062 293.984375 239.683594 295.3125 263.167969 297.730469 C 241.640625 312.535156 215.574219 321.210938 187.476562 321.210938 C 163.203125 321.210938 140.445312 314.746094 120.820312 303.441406 C 108.988281 304.507812 97.542969 305.855469 86.628906 307.464844 C 113.886719 330.398438 149.0625 344.226562 187.476562 344.226562 C 228.945312 344.226562 266.640625 328.105469 294.675781 301.8125 C 312.960938 304.707031 329.460938 308.320312 343.613281 312.507812 " fill-opacity="1" fill-rule="nonzero"/></g><g clip-path="url(#clip-1)"><path fill="rgb(100%, 82.749939%, 41.178894%)" d="M 175.851562 241.636719 L 175.851562 249.277344 L 117.925781 288.769531 C 117.167969 288.867188 116.410156 288.96875 115.65625 289.074219 Z M 175.851562 268.894531 L 151.402344 285.566406 C 149.046875 285.714844 146.707031 285.878906 144.382812 286.054688 L 175.851562 261.257812 Z M 187.472656 30.726562 C 100.902344 30.726562 30.726562 100.902344 30.726562 187.476562 C 30.726562 229.945312 47.625 268.457031 75.054688 296.6875 C 57.492188 301.054688 42.617188 306.417969 31.335938 312.507812 C 69.777344 301.136719 125.484375 293.984375 187.472656 293.984375 L 187.472656 62.445312 L 115.535156 111.492188 L 115.535156 132.210938 L 175.851562 84.679688 L 175.851562 92.320312 L 115.535156 133.441406 L 115.535156 151.828125 L 175.851562 104.300781 L 175.851562 111.9375 L 115.535156 153.0625 L 115.535156 171.449219 L 175.851562 123.917969 L 175.851562 131.558594 L 115.535156 172.679688 L 115.535156 191.070312 L 175.851562 143.542969 L 175.851562 151.179688 L 115.535156 192.300781 L 115.535156 210.6875 L 175.851562 163.160156 L 175.851562 170.796875 L 115.535156 211.921875 L 115.535156 230.304688 L 175.851562 182.78125 L 175.851562 190.417969 L 115.535156 231.542969 L 115.535156 249.925781 L 175.851562 202.398438 L 175.851562 210.035156 L 115.535156 251.160156 L 115.535156 269.546875 L 175.851562 222.019531 L 175.851562 229.65625 L 115.535156 270.78125 L 115.535156 289.089844 C 111.210938 289.675781 106.972656 290.3125 102.832031 291 C 72.871094 266.472656 53.738281 229.214844 53.738281 187.476562 C 53.738281 113.613281 113.613281 53.738281 187.472656 53.738281 C 261.335938 53.738281 321.210938 113.613281 321.210938 187.476562 C 321.210938 226.183594 304.761719 261.039062 278.480469 285.460938 C 287.875 287.140625 296.714844 289.070312 304.964844 291.222656 C 329.390625 263.582031 344.222656 227.265625 344.222656 187.476562 C 344.222656 100.902344 274.042969 30.726562 187.472656 30.726562 " fill-opacity="1" fill-rule="nonzero"/></g></svg>